<svg width="21" height="20" viewBox="0 0 21 20" fill="none" xmlns="http://www.w3.org/2000/svg">
<path d="M13.469 10C13.469 8.125 11.9715 6.625 10.0996 6.625C8.2277 6.625 6.73019 8.125 6.73019 10C6.73019 11.875 8.2277 13.375 10.0996 13.375C11.9715 13.375 13.469 11.875 13.469 10ZM15.2161 10C15.2161 12.875 12.9698 15.125 10.0996 15.125C7.22936 15.125 4.9831 12.875 4.9831 10C4.9831 7.125 7.22936 4.875 10.0996 4.875C12.9698 4.875 15.2161 7.125 15.2161 10ZM16.5888 4.625C16.5888 5.375 16.0896 5.875 15.3408 5.875C14.5921 5.875 14.0929 5.375 14.0929 4.625C14.0929 3.875 14.5921 3.375 15.3408 3.375C16.0896 3.375 16.5888 4 16.5888 4.625ZM10.0996 1.75C8.60207 1.75 5.48227 1.625 4.23435 2.125C3.36081 2.5 2.61205 3.25 2.36247 4.125C1.8633 5.375 1.98809 8.5 1.98809 10C1.98809 11.5 1.8633 14.625 2.36247 15.875C2.61205 16.75 3.36081 17.5 4.23435 17.75C5.48227 18.25 8.72687 18.125 10.0996 18.125C11.4723 18.125 14.7169 18.25 15.9648 17.75C16.8384 17.375 17.4623 16.75 17.8367 15.875C18.3359 14.5 18.2111 11.375 18.2111 10C18.2111 8.625 18.3359 5.375 17.8367 4.125C17.5871 3.25 16.8384 2.5 15.9648 2.25C14.7169 1.625 11.5971 1.75 10.0996 1.75ZM20.0829 10V14.125C20.0829 15.625 19.5838 17.125 18.4606 18.375C17.3375 19.5 15.84 20 14.2177 20H5.98144C4.48393 20 2.98643 19.5 1.73851 18.375C0.740171 17.25 0.116211 15.75 0.116211 14.125V10V5.875C0.116211 4.25 0.740171 2.75 1.73851 1.625C2.98643 0.625 4.48393 0 5.98144 0H14.2177C15.7152 0 17.2127 0.5 18.4606 1.625C19.459 2.75 20.0829 4.25 20.0829 5.875V10Z" fill="#58667E"/>
</svg>
